<?xml version="1.0" encoding="utf-8"?>
<!-- Designed by Vexels.com - 2016 All Rights Reserved - https://vexels.com/terms-and-conditions/  -->

<svg version="1.1" id="Layer_1" xmlns="http://www.w3.org/2000/svg" xmlns:xlink="http://www.w3.org/1999/xlink" x="0px" y="0px"
	 width="1200px" height="1200px" viewBox="0 0 1200 1200" enable-background="new 0 0 1200 1200" xml:space="preserve">
<g>
	<path fill="#575756" d="M605.211,307.786h174.717c62.515,0,113.062-50.67,113.062-113.066c0-62.474-50.547-113.062-113.062-113.062
		H605.211c-62.433,0-113.103,50.588-113.103,113.062C492.108,257.116,542.778,307.786,605.211,307.786z M584.61,143.273h215.96
		v102.821H584.61V143.273z"/>
	<path fill="#575756" d="M605.211,583.773c-113.584,0-205.641,92.037-205.641,205.6c0,113.588,92.057,205.641,205.641,205.641
		c113.526,0,205.641-92.053,205.641-205.641C810.852,675.81,718.737,583.773,605.211,583.773z M607.704,924.648
		c-72.978,0-132.022-59.101-132.022-131.981c0-72.957,59.043-132.141,132.022-132.141c72.879,0,132.001,59.184,132.001,132.141
		C739.704,865.547,680.583,924.648,607.704,924.648z"/>
	<path fill="#575756" d="M988,450.188h-95.01c0-62.478-50.547-113.144-113.062-113.144H605.211
		c-62.433,0-113.103,50.666-113.103,113.144H368.785c11.306,0,20.523-9.237,20.523-20.564c0-11.43-9.217-20.605-20.523-20.605
		H232.708c-11.306,0-20.605,9.176-20.605,20.605c0,11.327,9.299,20.564,20.605,20.564h-20.605
		C122.558,450.188,50,522.664,50,612.229v344.087c0,89.528,72.558,162.025,162.103,162.025H988c89.483,0,162-72.497,162-162.025
		V612.229C1150,522.664,1077.483,450.188,988,450.188z M224.836,655.669h-72.016v-71.896h72.016V655.669z M605.211,1077.291
		c-159.051,0-287.918-128.986-287.918-287.918c0-158.948,128.867-287.774,287.918-287.774
		c158.932,0,287.779,128.826,287.779,287.774C892.99,948.305,764.143,1077.291,605.211,1077.291z"/>
</g>
</svg>
